<svg width="483" height="148" viewBox="0 0 483 148" fill="none" xmlns="http://www.w3.org/2000/svg">
<rect width="483" height="148" fill="#E5E5E5"/>
<rect width="1534" height="743" transform="translate(-1029 -575)" fill="white"/>
<rect width="483" height="148" fill="url(#paint0_diamond)"/>
<path fill-rule="evenodd" clip-rule="evenodd" d="M438.746 103.551H423.939V49.39H437.683V57.084C440.04 53.4468 442.163 51.0444 444.035 49.8965C445.924 48.7464 448.048 48.1551 450.441 48.1551C453.822 48.1551 457.062 49.0595 460.19 50.8705L455.604 63.3519C453.121 61.8039 450.8 61.0213 448.659 61.0213C446.572 61.0213 444.828 61.5604 443.388 62.6736C441.932 63.7715 440.813 65.7716 439.986 68.6631C439.157 71.5546 438.746 77.6116 438.746 86.821V103.551ZM402.529 77.542C400.642 78.1508 397.636 78.8835 393.517 79.7335C389.415 80.5879 386.734 81.4249 385.458 82.225C383.53 83.5642 382.56 85.2383 382.56 87.2732C382.56 89.2929 383.333 91.017 384.881 92.4801C386.426 93.9411 388.388 94.6716 390.781 94.6716C393.461 94.6716 395.998 93.8193 398.429 92.1301C400.229 90.843 401.395 89.2581 401.954 87.3776C402.35 86.1579 402.529 83.8273 402.529 80.3966V77.542ZM382.721 65.9129L369.283 63.5628C370.791 58.3232 373.386 54.4556 377.071 51.9315C380.78 49.4248 386.247 48.1551 393.517 48.1551C400.137 48.1551 405.048 48.9182 408.288 50.4357C411.508 51.9489 413.793 53.8642 415.107 56.197C416.421 58.5298 417.087 62.7953 417.087 69.0284L416.925 85.7601C416.925 90.5104 417.158 94.028 417.644 96.2934C418.111 98.5392 419.01 100.976 420.306 103.551H405.643C405.266 102.594 404.778 101.185 404.221 99.3198C403.99 98.4675 403.81 97.911 403.7 97.6327C401.163 100.015 398.465 101.794 395.587 102.996C392.706 104.177 389.63 104.77 386.357 104.77C380.6 104.77 376.046 103.257 372.737 100.244C369.407 97.2131 367.751 93.3845 367.751 88.7538C367.751 85.7057 368.508 82.9751 370.02 80.5705C371.53 78.1704 373.653 76.342 376.37 75.0701C379.086 73.7983 383.027 72.683 388.156 71.7264C395.063 70.4742 399.869 69.2893 402.529 68.2109V66.7826C402.529 64.015 401.831 62.0648 400.426 60.88C399.022 59.7147 396.378 59.1233 392.475 59.1233C389.828 59.1233 387.779 59.6277 386.303 60.6365C384.824 61.6278 383.638 63.3888 382.721 65.9129ZM351.994 71.8329C351.886 67.6696 350.79 64.5194 348.684 62.3605C346.579 60.2016 344.006 59.1233 340.982 59.1233C337.745 59.1233 335.082 60.2712 332.977 62.5518C330.872 64.815 329.829 67.9153 329.865 71.8329H351.994ZM351.149 86.3166L365.92 88.7016C364.012 93.9411 361.028 97.9262 356.926 100.661C352.839 103.414 347.714 104.77 341.56 104.77C331.824 104.77 324.628 101.707 319.95 95.5434C316.263 90.6148 314.409 84.3839 314.409 76.8812C314.409 67.8957 316.838 60.8647 321.696 55.7796C326.535 50.6966 332.671 48.1551 340.084 48.1551C348.415 48.1551 354.98 50.8183 359.804 56.147C364.608 61.4735 366.908 69.6197 366.711 80.6075H329.593C329.703 84.8535 330.89 88.1602 333.175 90.5104C335.46 92.8802 338.32 94.0629 341.721 94.0629C344.042 94.0629 345.986 93.4541 347.568 92.2345C349.154 90.9996 350.358 89.032 351.149 86.3166ZM310.85 103.551H296.041V75.905C296.041 70.0546 295.718 66.2782 295.089 64.5541C294.46 62.8497 293.415 61.5083 291.995 60.5495C290.573 59.6081 288.863 59.1233 286.865 59.1233C284.293 59.1233 281.99 59.7994 279.959 61.1582C277.925 62.5344 276.521 64.3259 275.766 66.5738C275.011 68.8197 274.631 72.9635 274.631 79.0204V103.551H259.825V49.39H273.571V57.3449C278.464 51.2184 284.616 48.1551 292.031 48.1551C295.286 48.1551 298.29 48.7291 300.991 49.8596C303.69 51.0075 305.741 52.4532 307.125 54.2295C308.511 56.0057 309.482 58.008 310.023 60.2538C310.581 62.5018 310.85 65.7021 310.85 69.8806V103.551ZM237.069 103.551H251.876V49.39H237.069V103.551ZM237.069 42.0416H251.876V28.7776H237.069V42.0416ZM214.205 103.551H229.012V28.7776H214.205V103.551ZM191.342 103.551H206.148V28.7776H191.342V103.551ZM144.275 76.4615C144.275 81.8424 145.59 85.9514 148.234 88.8059C150.863 91.6605 154.119 93.0888 157.988 93.0888C161.855 93.0888 165.094 91.6605 167.703 88.8059C170.329 85.9514 171.644 81.8054 171.644 76.3594C171.644 71.0655 170.329 66.9739 167.703 64.1193C165.094 61.2626 161.855 59.8364 157.988 59.8364C154.119 59.8364 150.863 61.2626 148.234 64.1193C145.59 66.9739 144.275 71.1003 144.275 76.4615ZM129.091 75.6963C129.091 70.9416 130.316 66.3304 132.724 61.8713C135.153 57.4319 138.591 54.0208 143.035 51.688C147.479 49.3378 152.445 48.1551 157.934 48.1551C166.389 48.1551 173.334 50.8183 178.751 56.147C184.165 61.4735 186.864 68.1935 186.864 76.3224C186.864 84.5056 184.129 91.2953 178.679 96.6913C173.208 102.09 166.335 104.77 158.039 104.77C152.894 104.77 148.019 103.655 143.359 101.409C138.699 99.1654 135.153 95.8738 132.724 91.5387C130.316 87.2036 129.091 81.9293 129.091 75.6963ZM128.429 65.4064L113.82 67.9479C113.334 65.1303 112.218 63.004 110.474 61.5778C108.728 60.1495 106.479 59.4342 103.709 59.4342C100.002 59.4342 97.0697 60.6734 94.8745 63.128C92.6794 65.5977 91.5807 69.7263 91.5807 75.5049C91.5807 81.9293 92.6974 86.4732 94.9285 89.119C97.1596 91.7649 100.146 93.0888 103.907 93.0888C106.731 93.0888 109.016 92.3214 110.816 90.7713C112.615 89.2234 113.874 86.5601 114.611 82.799L129.168 85.1839C127.656 91.6431 124.742 96.5347 120.459 99.8263C116.177 103.133 110.436 104.77 103.224 104.77C95.0363 104.77 88.5048 102.281 83.6472 97.2848C78.7716 92.2888 76.3428 85.3579 76.3428 76.5137C76.3428 67.5826 78.7896 60.6191 83.6652 55.6404C88.5587 50.6423 95.1621 48.1551 103.493 48.1551C110.312 48.1551 115.727 49.5813 119.756 52.4206C123.771 55.2578 126.667 59.5929 128.429 65.4064Z" fill="#0B6E9C"/>
<path fill-rule="evenodd" clip-rule="evenodd" d="M431.579 119.621H432.862C433.875 119.621 434.58 119.55 434.976 119.411C435.371 119.274 435.681 119.039 435.911 118.719C436.135 118.397 436.248 118.008 436.248 117.55C436.248 116.756 435.928 116.178 435.295 115.815C434.83 115.543 433.974 115.408 432.72 115.408H431.579V119.621ZM427.523 111.573H431.821C434.147 111.573 435.821 111.784 436.847 112.199C437.872 112.614 438.688 113.284 439.281 114.215C439.872 115.141 440.168 116.254 440.168 117.55C440.168 118.987 439.779 120.18 439.004 121.13C438.227 122.087 437.173 122.746 435.845 123.117C435.063 123.333 433.641 123.443 431.579 123.443V132.161H427.523V111.573ZM402.413 111.573H406.473V124.896C406.473 126.046 406.578 126.859 406.785 127.331C406.994 127.811 407.333 128.185 407.812 128.472C408.29 128.759 408.87 128.9 409.54 128.9C410.256 128.9 410.867 128.739 411.389 128.426C411.901 128.105 412.26 127.705 412.458 127.211C412.656 126.726 412.753 125.789 412.753 124.409V111.573H416.817V123.848C416.817 125.918 416.693 127.357 416.458 128.159C416.215 128.961 415.754 129.733 415.073 130.479C414.395 131.229 413.609 131.779 412.723 132.142C411.836 132.501 410.805 132.677 409.629 132.677C408.084 132.677 406.74 132.34 405.601 131.651C404.455 130.968 403.642 130.107 403.147 129.076C402.658 128.044 402.413 126.3 402.413 123.848V111.573ZM381.666 114.893C379.695 114.893 378.041 115.552 376.705 116.88C375.363 118.204 374.691 119.889 374.691 121.93C374.691 124.207 375.536 126.007 377.224 127.331C378.538 128.368 380.039 128.885 381.735 128.885C383.656 128.885 385.292 128.216 386.638 126.872C387.99 125.526 388.664 123.872 388.664 121.906C388.664 119.941 387.986 118.284 386.622 116.928C385.265 115.571 383.609 114.893 381.666 114.893ZM381.706 111.058C384.717 111.058 387.305 112.112 389.466 114.219C391.632 116.33 392.715 118.9 392.715 121.93C392.715 124.933 391.65 127.478 389.511 129.557C387.372 131.64 384.782 132.677 381.735 132.677C378.547 132.677 375.896 131.614 373.781 129.472C371.669 127.337 370.611 124.8 370.611 121.861C370.611 119.893 371.108 118.084 372.092 116.43C373.071 114.778 374.426 113.469 376.145 112.506C377.866 111.538 379.722 111.058 381.706 111.058ZM352.776 119.621H354.05C355.342 119.621 356.232 119.461 356.719 119.128C357.204 118.804 357.447 118.265 357.447 117.51C357.447 117.06 357.328 116.671 357.085 116.341C356.843 116.01 356.521 115.771 356.117 115.628C355.713 115.48 354.971 115.408 353.893 115.408H352.776V119.621ZM348.727 111.573H353.021C355.376 111.573 357.049 111.78 358.049 112.184C359.045 112.59 359.849 113.264 360.458 114.206C361.062 115.145 361.366 116.265 361.366 117.55C361.366 118.906 361.035 120.032 360.363 120.943C359.692 121.852 358.681 122.541 357.332 123.009L362.365 132.161H357.939L353.151 123.443H352.776V132.161H348.727V111.573ZM337.194 114.936L334.345 117.665C332.539 115.815 330.44 114.893 328.036 114.893C325.942 114.893 324.19 115.562 322.779 116.908C321.365 118.25 320.66 119.884 320.66 121.804C320.66 123.791 321.397 125.478 322.857 126.859C324.324 128.239 326.131 128.926 328.283 128.926C329.681 128.926 330.86 128.644 331.818 128.079C332.779 127.502 333.55 126.615 334.143 125.402H327.982V121.719H338.679L338.711 122.587C338.711 124.389 338.23 126.096 337.264 127.709C336.3 129.324 335.051 130.555 333.521 131.407C331.986 132.257 330.189 132.677 328.126 132.677C325.917 132.677 323.949 132.214 322.217 131.287C320.482 130.359 319.116 129.037 318.11 127.318C317.101 125.602 316.598 123.748 316.598 121.761C316.598 119.039 317.526 116.671 319.386 114.654C321.599 112.256 324.473 111.058 328.007 111.058C329.858 111.058 331.591 111.386 333.199 112.051C334.563 112.608 335.891 113.569 337.194 114.936Z" fill="#71A243"/>
<path fill-rule="evenodd" clip-rule="evenodd" d="M299.259 6.29114C316.159 6.29114 332.712 6.65638 348.797 7.35426C343.896 7.29556 338.965 7.26514 334.006 7.26514C170.918 7.26514 38.6614 39.0479 38.6614 78.24C38.6614 105.283 101.64 128.796 194.265 140.775C89.8193 130.507 16 105.375 16 76.0094C16 37.5087 142.846 6.29114 299.259 6.29114Z" fill="#71A243"/>
<defs>
<radialGradient id="paint0_diamond" cx="0" cy="0" r="1" gradientUnits="userSpaceOnUse" gradientTransform="translate(235.5 83) rotate(70.0484) scale(77.6611 588.593)">
<stop offset="0.107639" stop-color="white"/>
<stop offset="0.263889" stop-color="#EAEAEA" stop-opacity="0.725619"/>
<stop offset="0.493055" stop-color="#FEFEFE"/>
<stop offset="1" stop-color="#E0E0E0"/>
</radialGradient>
</defs>
</svg>
